<svg id="e9iSI8aCnOh1" xmlns="http://www.w3.org/2000/svg" xmlns:xlink="http://www.w3.org/1999/xlink" viewBox="0 0 300 300" shape-rendering="geometricPrecision" text-rendering="geometricPrecision" project-id="0a7c4994f0694b7cb7c46099faad6904" export-id="4d125ee64a424c9abd75608e8cbc6ac1" cached="false"><defs><linearGradient id="e9iSI8aCnOh2-fill" x1="0" y1="0.5" x2="1" y2="0.5" spreadMethod="pad" gradientUnits="objectBoundingBox" gradientTransform="translate(0 0)"><stop id="e9iSI8aCnOh2-fill-0" offset="0%" stop-color="#f7b82d"/><stop id="e9iSI8aCnOh2-fill-1" offset="50%" stop-color="#fa8c4e"/><stop id="e9iSI8aCnOh2-fill-2" offset="97%" stop-color="#ffaf00"/></linearGradient><linearGradient id="e9iSI8aCnOh4-fill" x1="0" y1="0.5" x2="1" y2="0.5" spreadMethod="pad" gradientUnits="objectBoundingBox" gradientTransform="translate(0 0)"><stop id="e9iSI8aCnOh4-fill-0" offset="0%" stop-color="#f7b82d"/><stop id="e9iSI8aCnOh4-fill-1" offset="50%" stop-color="#fa8c4e"/><stop id="e9iSI8aCnOh4-fill-2" offset="97%" stop-color="#ffaf00"/></linearGradient><linearGradient id="e9iSI8aCnOh6-fill" x1="0" y1="0.5" x2="1" y2="0.5" spreadMethod="pad" gradientUnits="objectBoundingBox" gradientTransform="translate(0 0)"><stop id="e9iSI8aCnOh6-fill-0" offset="0%" stop-color="#f7b82d"/><stop id="e9iSI8aCnOh6-fill-1" offset="50%" stop-color="#fa8c4e"/><stop id="e9iSI8aCnOh6-fill-2" offset="97%" stop-color="#ffaf00"/></linearGradient><linearGradient id="e9iSI8aCnOh8-fill" x1="0" y1="0.5" x2="1" y2="0.5" spreadMethod="pad" gradientUnits="objectBoundingBox" gradientTransform="translate(0 0)"><stop id="e9iSI8aCnOh8-fill-0" offset="0%" stop-color="#f7b82d"/><stop id="e9iSI8aCnOh8-fill-1" offset="50%" stop-color="#fa8c4e"/><stop id="e9iSI8aCnOh8-fill-2" offset="97%" stop-color="#ffaf00"/></linearGradient><linearGradient id="e9iSI8aCnOh9-fill" x1="0" y1="0.5" x2="1" y2="0.5" spreadMethod="pad" gradientUnits="objectBoundingBox" gradientTransform="translate(0 0)"><stop id="e9iSI8aCnOh9-fill-0" offset="0%" stop-color="#f7b82d"/><stop id="e9iSI8aCnOh9-fill-1" offset="50%" stop-color="#fa8c4e"/><stop id="e9iSI8aCnOh9-fill-2" offset="97%" stop-color="#ffaf00"/></linearGradient><linearGradient id="e9iSI8aCnOh10-fill" x1="0" y1="0.5" x2="1" y2="0.5" spreadMethod="pad" gradientUnits="objectBoundingBox" gradientTransform="translate(0 0)"><stop id="e9iSI8aCnOh10-fill-0" offset="0%" stop-color="#f7b82d"/><stop id="e9iSI8aCnOh10-fill-1" offset="50%" stop-color="#fa8c4e"/><stop id="e9iSI8aCnOh10-fill-2" offset="97%" stop-color="#ffaf00"/></linearGradient><linearGradient id="e9iSI8aCnOh11-fill" x1="0" y1="0.5" x2="1" y2="0.5" spreadMethod="pad" gradientUnits="objectBoundingBox" gradientTransform="translate(0 0)"><stop id="e9iSI8aCnOh11-fill-0" offset="0%" stop-color="#f7b82d"/><stop id="e9iSI8aCnOh11-fill-1" offset="50%" stop-color="#fa8c4e"/><stop id="e9iSI8aCnOh11-fill-2" offset="97%" stop-color="#ffaf00"/></linearGradient></defs><polygon points="0,-30 25.980762,-15 25.980762,15 0,30 -25.980762,15 -25.980762,-15 0,-30" transform="matrix(4.726983 0 0 4.726991 150 150)" fill="url(#e9iSI8aCnOh2-fill)" stroke-width="0"/><polygon points="0,-30 25.980762,-15 25.980762,15 0,30 -25.980762,15 -25.980762,-15 0,-30" transform="matrix(4.28277 0 0 4.282776 150 150)" stroke-width="0"/><polygon points="0,-30 25.980762,-15 25.980762,15 0,30 -25.980762,15 -25.980762,-15 0,-30" transform="matrix(3.724263 0 0 3.724265 150 150)" fill="url(#e9iSI8aCnOh4-fill)" stroke-width="0"/><polygon points="0,-30 25.980762,-15 25.980762,15 0,30 -25.980762,15 -25.980762,-15 0,-30" transform="matrix(3.220599 0 0 3.220603 150 150)" stroke-width="0"/><polygon points="0,-30 25.980762,-15 25.980762,15 0,30 -25.980762,15 -25.980762,-15 0,-30" transform="matrix(2.732268 0 0 2.732268 150 150)" fill="url(#e9iSI8aCnOh6-fill)" stroke-width="0"/><polygon points="0,-30 25.980762,-15 25.980762,15 0,30 -25.980762,15 -25.980762,-15 0,-30" transform="matrix(2.300765 0 0 2.300766 150 150)" stroke-width="0"/><path d="" fill="url(#e9iSI8aCnOh8-fill)" stroke="#fff" stroke-width="4"/><path d="M90.224372,111.97702l53.5,31l53.5-31-53.5-31-53.5,31" transform="translate(6.775628 5.02298)" fill="url(#e9iSI8aCnOh9-fill)" stroke="#000" stroke-width="4"/><path d="M90.224372,111.97702l53.5,31l53.5-31-53.5-31-53.5,31" transform="matrix(0.499531 0.866296 -0.866296 0.499531 146.790486 -13.611556)" fill="url(#e9iSI8aCnOh10-fill)" stroke="#000" stroke-width="4"/><path d="M90.224372,111.97702l53.5,31l53.5-31-53.5-31-53.5,31" transform="matrix(0.508351 -0.86115 -0.86115 -0.508351 202.258946 347.522281)" fill="url(#e9iSI8aCnOh11-fill)" stroke="#000" stroke-width="4"/></svg>
